<svg width="40" height="38" viewBox="0 0 40 38" fill="none" xmlns="http://www.w3.org/2000/svg">
<path d="M40 6.3934C40 3.41935 37.6124 1.01205 34.6654 1.01205C31.7185 1.01205 29.3282 3.41935 29.3282 6.3934C29.3282 8.68196 30.7522 10.6332 32.7516 11.4104C30.9984 11.1028 29.1542 11.8287 28.0996 13.4129L22.8025 21.3797C21.9567 21.628 20.8352 21.6658 20.2463 21.2016C19.521 20.6321 17.0665 19.245 14.1837 19.137C11.2983 19.0291 9.26672 21.5146 9.26672 21.5146C9.26672 21.5146 9.26672 21.5146 9.26672 21.5173C9.18375 21.5929 9.10345 21.6766 9.03119 21.7656L0.492674 32.5931C-0.465566 33.8076 0.0162309 35.802 1.57136 37.0488C3.12382 38.2956 5.16075 38.3199 6.11899 37.1028L14.2854 26.7476C19.0525 31.6431 25.8727 30.5016 25.8727 30.5016C29.5932 29.727 31.3223 28.4046 35.0429 22.6994C38.7607 16.9888 36.1697 14.0579 36.1697 14.0579L36.167 14.0606C35.8218 13.305 35.2784 12.6303 34.5396 12.131C34.2693 11.9475 33.9883 11.7991 33.6965 11.6803C34.0123 11.7397 34.3335 11.7721 34.6654 11.7721C37.6124 11.7721 40 9.36475 40 6.3934Z" fill="#666666"/>
<path d="M16.4991 13.8717L22.5376 6.93585L16.4991 0V3.78368H11.4857V10.088H16.4991V13.8717Z" fill="#666666"/>
</svg>
