<svg width="50" height="38" viewBox="0 0 50 38" fill="none" xmlns="http://www.w3.org/2000/svg">
<path d="M50 5.52618C50 2.47333 47.475 0 44.3618 0C41.2486 0 38.7265 2.47333 38.7265 5.52618C38.7265 7.88028 40.2251 9.88501 42.3401 10.6808C40.4909 10.3675 38.5398 11.1134 37.4258 12.741L31.83 20.9263C30.9365 21.1814 29.7545 21.2174 29.1297 20.7433C28.3605 20.1554 25.7705 18.733 22.7252 18.6221C19.6799 18.5084 17.5309 21.0649 17.5309 21.0649C17.4433 21.1425 17.3585 21.2285 17.2849 21.3228L8.26496 32.4445C7.24986 33.695 7.76166 35.7441 9.40165 37.0223C11.0416 38.3034 13.1934 38.3283 14.2085 37.0806L22.8355 26.4414C27.8686 31.4684 35.0732 30.2983 35.0732 30.2983C39.0036 29.5025 40.833 28.1411 44.7605 22.2794C48.6908 16.4149 45.9537 13.4009 45.9537 13.4009L45.9481 13.4065C45.5833 12.6273 45.0093 11.9341 44.2318 11.4211C43.9433 11.2354 43.6464 11.0829 43.3411 10.9609C43.6719 11.0191 44.014 11.0551 44.3618 11.0551C47.475 11.0551 50 8.57902 50 5.52618Z" fill="#666666"/>
<path d="M10.5893 23.6159L11.217 14.1551L8.41488 16.9029L4.67115 13.2318L0 17.8152L3.74371 21.4836L0.941571 24.2342L10.5893 23.6159Z" fill="#666666"/>
</svg>
