<svg width="30" height="30" viewBox="0 0 30 30" fill="none" xmlns="http://www.w3.org/2000/svg">
<path d="M7.5 8.75H21.25C21.913 8.75 22.5489 9.01339 23.0178 9.48223C23.4866 9.95107 23.75 10.587 23.75 11.25V11.875C23.75 12.0408 23.8158 12.1997 23.9331 12.3169C24.0503 12.4342 24.2092 12.5 24.375 12.5C24.5408 12.5 24.6997 12.5658 24.8169 12.6831C24.9342 12.8003 25 12.9592 25 13.125V16.875C25 17.0408 24.9342 17.1997 24.8169 17.3169C24.6997 17.4342 24.5408 17.5 24.375 17.5C24.2092 17.5 24.0503 17.5658 23.9331 17.6831C23.8158 17.8003 23.75 17.9592 23.75 18.125V18.75C23.75 19.413 23.4866 20.0489 23.0178 20.5178C22.5489 20.9866 21.913 21.25 21.25 21.25H7.5C6.83696 21.25 6.20107 20.9866 5.73223 20.5178C5.26339 20.0489 5 19.413 5 18.75V11.25C5 10.587 5.26339 9.95107 5.73223 9.48223C6.20107 9.01339 6.83696 8.75 7.5 8.75Z" stroke="white" stroke-width="2" stroke-linecap="round" stroke-linejoin="round"/>
</svg>
