<svg width="30" height="24" viewBox="0 0 30 24" fill="none" xmlns="http://www.w3.org/2000/svg">
<g clip-path="url(#clip0_1212_2532)">
<path fill-rule="evenodd" clip-rule="evenodd" d="M1.35383 8.09745L1.3359 8.1094C0.501303 8.6658 0 9.60249 0 10.6056V22.5C0 23.3284 0.671573 24 1.5 24H3C3.82843 24 4.5 23.3284 4.5 22.5V21H25.5V22.5C25.5 23.3284 26.1716 24 27 24H28.5C29.3284 24 30 23.3284 30 22.5V10.6056C30 9.60249 29.4987 8.6658 28.6641 8.1094L28.6462 8.09745C29.1928 7.78171 29.688 7.47155 29.7842 7.33333C30.0162 7 30.1228 6 29.7842 6H27L25.2438 2.48754C24.4815 0.96301 22.9233 0 21.2188 0H8.78115C7.07668 0 5.51849 0.96301 4.75623 2.48754L3 6H0.215822C-0.122794 6 -0.0161927 7 0.215822 7.33333C0.312028 7.47155 0.807154 7.78171 1.35383 8.09745ZM6.15294 3.08823L3.58824 7.89706C3.32179 8.39664 3.68381 9 4.25 9H25.75C26.3162 9 26.6782 8.39664 26.4118 7.89706L23.8471 3.08823C23.3257 2.11064 22.3079 1.5 21.2 1.5H8.8C7.69207 1.5 6.67433 2.11064 6.15294 3.08823ZM1.5 13.6198V11.8058C1.5 11.2269 2.12791 10.8663 2.6279 11.1579L7.63615 14.0794C8.32636 14.482 7.99226 15.541 7.19596 15.4747L2.87543 15.1146C2.09799 15.0498 1.5 14.3999 1.5 13.6198ZM28.5 11.8058V13.6198C28.5 14.3999 27.902 15.0498 27.1246 15.1146L22.804 15.4747C22.0077 15.541 21.6736 14.482 22.3639 14.0794L27.3721 11.1579C27.8721 10.8663 28.5 11.2269 28.5 11.8058Z" fill="white"/>
</g>
<defs>
<clipPath id="clip0_1212_2532">
<rect width="30" height="24" fill="white"/>
</clipPath>
</defs>
</svg>
