<svg width="30" height="27" viewBox="0 0 30 27" fill="none" xmlns="http://www.w3.org/2000/svg">
<path d="M19.2001 2.41931L29.2516 19.1609C30.6961 21.5655 29.9866 24.729 27.6661 26.226C26.8877 26.7313 25.9796 27.0002 25.0516 27H4.94701C2.21551 27 0 24.705 0 21.8715C0 20.913 0.259501 19.9754 0.747002 19.1609L10.8 2.41931C12.243 0.0147877 15.294 -0.721718 17.6145 0.775294C18.2566 1.1893 18.7996 1.7518 19.2001 2.41931ZM15.87 3.67782C15.6864 3.5597 15.4807 3.48003 15.2655 3.44363C15.0502 3.40723 14.8297 3.41484 14.6175 3.46601C14.4052 3.51719 14.2055 3.61085 14.0305 3.74136C13.8554 3.87187 13.7087 4.0365 13.599 4.22532L3.54751 20.97C3.38423 21.2428 3.29817 21.555 3.29851 21.873C3.29851 22.818 4.03651 23.583 4.94851 23.583H25.0501C25.3591 23.583 25.6606 23.493 25.9216 23.325C26.2961 23.0761 26.5602 22.6924 26.6588 22.2537C26.7575 21.815 26.683 21.3552 26.4511 20.97L16.3995 4.22532C16.2686 4.00419 16.0878 3.81671 15.8715 3.67782H15.87ZM15 21C14.6022 21 14.2207 20.8419 13.9394 20.5606C13.6581 20.2793 13.5 19.8978 13.5 19.4999C13.5 19.1021 13.6581 18.7206 13.9394 18.4393C14.2207 18.158 14.6022 17.9999 15 17.9999C15.3979 17.9999 15.7794 18.158 16.0607 18.4393C16.342 18.7206 16.5 19.1021 16.5 19.4999C16.5 19.8978 16.342 20.2793 16.0607 20.5606C15.7794 20.8419 15.3979 21 15 21ZM15 7.49985C15.3979 7.49985 15.7794 7.65788 16.0607 7.93919C16.342 8.2205 16.5 8.60203 16.5 8.99986V14.9999C16.5 15.3977 16.342 15.7793 16.0607 16.0606C15.7794 16.3419 15.3979 16.4999 15 16.4999C14.6022 16.4999 14.2207 16.3419 13.9394 16.0606C13.6581 15.7793 13.5 15.3977 13.5 14.9999V8.99986C13.5 8.60203 13.6581 8.2205 13.9394 7.93919C14.2207 7.65788 14.6022 7.49985 15 7.49985Z" fill="white"/>
</svg>
