<svg width="18" height="25" viewBox="0 0 18 25" fill="none" xmlns="http://www.w3.org/2000/svg">
<g clip-path="url(#clip0_1212_1255)">
<path d="M12.384 2.60714C12.384 4.03571 11.124 5.21429 9.558 5.21429C8.01 5.21429 6.75 4.03571 6.75 2.60714C6.75 1.16071 8.01 0 9.558 0C11.124 0 12.384 1.16071 12.384 2.60714ZM6.75 6.25H8.442L18 13.0179V14.5893H16.884L11.25 10.5536V14.5893L13.5 18.75L15.75 23.9643L14.634 25H13.5L11.25 19.7857L6.75 13.5357V8.69643L3.942 10.9464L1.692 14.5893H0V13.5357L1.692 10.4107L6.75 6.25ZM7.704 17.0893L5.094 25H3.942L2.808 23.9643L5.976 15.1607L7.704 17.0893Z" fill="white"/>
</g>
<defs>
<clipPath id="clip0_1212_1255">
<rect width="18" height="25" fill="white"/>
</clipPath>
</defs>
</svg>
